# xmcd CD database file
#
# Track frame offsets:
#	150
#	19430
#	40132
#	58015
#	80902
#	104505
#	125892
#	153727
#	170965
#	192990
#	214875
#	225567
#
# Disc length: 3313 seconds
#
# Revision: 8
# Processed by: cddbd v1.5.2PL0 Copyright (c) Steve Scherf et al.
# Submitted via: CDex 1.70beta3
#
DISCID=b90cef0c
DTITLE=坂本真綾 - You can't catch me
DYEAR=2011
DGENRE=声優
TTITLE0=eternal return
TTITLE1=秘密
TTITLE2=DOWN TOWN
TTITLE3=美しい人
TTITLE4=キミノセイ
TTITLE5=ゼロとイチ
TTITLE6=みずうみ
TTITLE7=stand up, girls!
TTITLE8=ミライ地図
TTITLE9=ムーンライト (または"きみが眠るための音楽")
TTITLE10=手紙
TTITLE11=トピア
EXTD=YEAR: 2011
EXTT0=
EXTT1=
EXTT2=
EXTT3=
EXTT4=
EXTT5=
EXTT6=
EXTT7=
EXTT8=
EXTT9=
EXTT10=
EXTT11=
PLAYORDER=
